<svg xmlns="http://www.w3.org/2000/svg" width="18" height="18" viewBox="0 0 24 24" fill="currentColor" aria-hidden="true"><path d="M12 2a10 10 0 0 0-3.16 19.49c.5.09.68-.22.68-.48v-1.7c-2.78.61-3.37-1.19-3.37-1.19-.46-1.17-1.12-1.49-1.12-1.49-.91-.62.07-.61.07-.61 1 .07 1.53 1.04 1.53 1.04 .9 1.54 2.36 1.09 2.94.83.09-.66.35-1.1.63-1.36-2.22-.25-4.55-1.11-4.55-4.95 0-1.09.39-1.98 1.03-2.68-.1-.25-.45-1.28.1-2.67 0 0 .84-.27 2.75 1.02A9.6 9.6 0 0 1 12 7.5c.85 0 1.7.12 2.5.35 1.9-1.29 2.74-1.02 2.74-1.02 .55 1.39.2 2.42.1 2.67.64.7 1.03 1.59 1.03 2.68 0 3.85-2.34 4.7-4.57 4.95.36.31.67.93.67 1.88v2.79c0 .26.18.58.69.48A10 10 0 0 0 12 2Z"></path></svg>
